<?xml version="1.0" encoding="UTF-8"?>
<svg version="1.1" viewBox="0 0 2048 1024" width="300" height="150" xmlns="http://www.w3.org/2000/svg">
<path transform="translate(322,346)" d="m0 0 5 4 10 21 12 22 14 26 12 23 7 13 4 1 19-14 14-10 10-8 9-7 2 1-5 28-13 69-12 63-4 16 8-5 13-14 7-8 11-11 9-11 4-1v270l-23 1h-28l-2-1-1-68-16-12-14-10-15-11-18-13-17-13-3-1-11 8-19 14-16 12-18 13-16 11-1 3v66l-1 1-25 1h-24l-2-6v-263l4 1 15 16 7 8 12 12 7 8 7 6-4-15-10-50-8-44-10-54-3-12v-4l4 1 13 10 14 10 17 12 10 7 2-5 8-16 18-34 14-26 15-29z" fill="#017244"/>
<path transform="translate(188,546)" d="m0 0 4 1 15 16 7 8 12 12 7 8 7 6 1-2 10 13 9 11 12 12 7 8 14 14 9 11 7 8 9 13v3l-19 14-32 24-20 14-7 5v68l-1 1-25 1h-24l-2-6z" fill="#0A3861"/>
<path transform="translate(455,544)" d="m0 0h3v270l-23 1h-28l-2-1-1-68-16-12-7-5 1-9 13-63 10-50 3-14 6-4 13-14 7-8 11-11 9-11z" fill="#FE1914"/>
<path transform="translate(1224,434)" d="m0 0h38l17 2 11 4 7 5 7 11 4 11 2 14 1 14v10l-2 16-5 12-7 9-5 6 2 12 15 58 3 13v3l-3 1h-19l-5-2-4-13-15-60-3-5-5-2v81l-2 1h-25l-1-25-1-136-1-17-3-15zm34 16-1 29v61l6-1 10-8 4-5 5-16 1-8v-12l-3-19-5-12-5-6-5-3z" fill="#017344"/>
<path transform="translate(1545,432)" d="m0 0h46l11 1 8 4 9 9 7 12 4 14 2 14v13l-2 18-4 11-12 16-1 1 1 11 14 54 4 16v6h-24l-3-3-4-13-15-60-1-3-7-2v80l-1 1h-24l-1-1-1-8-1-134-1-34-3-16zm34 15-1 1v89l7-2 11-9 4-9 3-15v-18l-2-14-4-12-6-8-7-3z" fill="#017344"/>
<path transform="translate(961,436)" d="m0 0h22l10 3 9 6 7 7 7 11 5 12 4 16 2 19v49l-2 21-4 20-6 15-8 11-9 7-13 4h-24l-10-3-9-6-8-10-7-15-5-18-3-23-1-15v-31l3-26 4-16 7-16 7-9 7-7 10-5zm12 12-7 2-6 8-5 12-5 22-3 22v44l4 25 4 19 5 12 6 8 4 3h7l6-4 6-9 5-19 4-27 1-14v-23l-2-25-3-19-5-17-6-14-5-5z" fill="#017344"/>
<path transform="translate(1367,432)" d="m0 0 25 1 2 2 8 50 15 90 2 10 2 2 2-7 6-41 13-85 3-18 3-3h11l-1 13-9 56-9 55-11 71-2 5h-26l-3-13-17-96-9-52-6-36z" fill="#017344"/>
<path transform="translate(1032,435)" d="m0 0h26l3 4 19 56 11 30 2 5 4-9 12-39 13-38 3-6 3-3h10l1 2-13 40-11 30-9 27-4 24-1 8v36l1 33-1 1h-27l-1-1v-60l-3-22-6-24-10-28-10-27-11-32-2-6z" fill="#017344"/>
<path transform="translate(1177,434)" d="m0 0h33l-1 8-4 4-6 1h-20v88h26l1 2-4 9-9 2h-14l1 49v26h32l1 1v11l-2 1-40 1h-15l-3-1-1-16-1-185z" fill="#017344"/>
<path transform="translate(1474,431)" d="m0 0h57l1 4-6 9-6 1-21 1 1 86 23-1 2 1-1 7-4 5-9 2h-12l1 32v42h15l18 1 2 4v7l-28 1h-33l-1-13-1-84v-102z" fill="#017344"/>
<path transform="translate(1697,429)" d="m0 0h21l5 3v8l-5 2h-22l1 50 1 138-2 2h-20l-5-3-1-24-2-159-1-2-25-1-2-6v-6l1-1z" fill="#017344"/>
<path transform="translate(849,437)" d="m0 0h59v6l-3 5-3 1-24 1v89l8-1h16l1 1-1 7-5 3-9 2h-11l1 27v60l-1 1-25-1-1-1-1-68-1-105z" fill="#017344"/>
<path transform="translate(1875,581)" d="m0 0 9 2 6 7-1 5-7 6-4-1-2-7-6 3-6 8-2 5v12l10 1 7-4 7-8 7-7 4 2-1 4-9 10-8 6-12 6-3 1h-8l-5-5-3-6-5 2-5 5-4 3h-8l-4-4 1-10 2-5 1-9-5 3-6 7-12 16-7 1-3-3-2-4-12 8h-9l-3-3-1-5 3-12 7-14 7-9 5-3h6l-1 7-12 23-1 3 7-3 5-3 10-14 8-12 4-4h6l-1 8-7 15 3-1 2-4 15-15 3-2h9l4 4-1 6-10 21 1 1 10-6 10-14 9-10z" fill="#017344"/>
<path transform="translate(763,460)" d="m0 0h7l6 4 5 6 1 5-3 10-9 12-6 7-10 6-16 6-6 3 1 4 17 12 15 7h10l1 5-4 6-7 5-8-1-12-7-12-11-5-5v-2h-6l-7 5-12 3-9-1-9-8v-6l5-7 10-4h14l7 2-3-9-4-2-4-5-3-5 1-7 6-10 2-2h5l1 17 2 6 1 4 6-5 11-18 9-11 8-7zm1 10-6 5-12 21-4 8v2l7-1 6-4 7-7 8-14v-9l-1-1zm-59 48-6 4-1 7 3 2h8l5-5 1-7z" fill="#017344"/>
<path transform="translate(976,732)" d="m0 0h12l1 1v44l1 23 1 3 5 1 5-3 1-3v-65l1-1h13l1 1 1 45v20l-4 8-4 5-7 4-10 1-9-2-7-9-2-6-1-11v-55z" fill="#0E3E63"/>
<path transform="translate(1175,729)" d="m0 0h9l7 3 8 7 4 8 2 9 1 12v13l-3 16-5 9-7 6-6 2h-14l-6-4-5-6-4-10-3-16v-14l2-14 4-10 5-6 7-4zm0 9-4 4-3 9v25l1 18 3 8 3 3h8l5-5 2-7 1-10v-24l-3-14-4-6-2-1z" fill="#0E3D62"/>
<path transform="translate(1427,728)" d="m0 0h24l8 2 5 5 3 9v16l-3 7-4 8 2 10 5 21v5h-11l-3-4-5-18-1-8h-5l2 29-1 1h-13l-1-1-1-15-1-45-1-21zm15 8-1 1 1 31 1 1h6l4-4 1-4v-20l-5-5z" fill="#0B3C60"/>
<path transform="translate(1602,725)" d="m0 0 9 1 8 5 5 6 4 10 2 12v22l-3 14-4 7-7 6-10 3h-8l-7-3-5-4-6-12-3-17v-16l2-12 4-10 7-8 7-3zm-2 9-5 5-3 8-1 7v28l2 10 3 7 3 3 5 1 6-3 4-7 1-4v-37l-2-9-5-8-2-1z" fill="#0D3D62"/>
<path transform="translate(923,732)" d="m0 0h25l7 3 6 9 2 8-1 13-5 11-1 7 6 27v6l-1 1-9-1-3-3-5-17-2-9-1-2-3-1 1 16v14l-2 2h-10l-2-2-1-7zm15 8-1 1v27l2 6 5-1 4-4 2-5 1-12-2-7-5-5z" fill="#0C3D61"/>
<path transform="translate(1821,724)" d="m0 0h8l9 3 5 5 5 8 3 11 1 8v18l-2 10-4 9-6 8-10 5h-9l-8-3-8-9-5-10-2-10v-19l2-14 4-9 6-7 6-3zm2 8-5 3-4 8-2 10v27l2 11 4 6 4 3 7-1 5-5 3-8 1-7v-21l-3-15-5-8-4-3z" fill="#0C3D61"/>
<path transform="translate(730,733)" d="m0 0h8l10 4 7 7 4 10 2 14v20l-2 12-4 8-4 5-7 4-4 1h-12l-7-3-6-7-5-13-3-16v-8l3-16 5-12 5-6zm1 9-5 5-3 8-2 17v11l2 15 5 9 4 3 6-1 5-4 3-8 1-8v-24l-2-12-3-7-5-4z" fill="#0C3C61"/>
<path transform="translate(1865,723)" d="m0 0 9 2 3 3 7 18 8 19 3 5 1-45 1-1h6l1 1v81l-3 2-6-1-5-7-8-20-6-17-4-7 1 27v22l-2 2h-5l-2-3v-80z" fill="#0F3F63"/>
<path transform="translate(1219,728)" d="m0 0 8 1 4 5 8 18 7 19 3 4v2h2v-46l3-3 4 1v83l-1 1-7-1-6-9-8-19-6-15-3-3 1 44-2 2-7-1-1-82z" fill="#0D3D62"/>
<path transform="translate(775,731)" d="m0 0 6 1 5 6 9 21 7 18 4 6 1-32 1-17 5-1 1 2v79l-1 3-4 1-6-4-8-17-7-19-6-10v46l-1 2-6-1-1-1v-82z" fill="#0E3E63"/>
<path transform="translate(1526,725)" d="m0 0 7 1 5 5 8 19 7 20 3 4v2h2v-42l1-7 4-2 1 1v84l-1 1h-5l-5-6-9-21-5-15-3-5-2-1v46l-1 1h-5l-2-2-1-16v-65z" fill="#0D3D62"/>
<path transform="translate(1694,724)" d="m0 0 7 1 2 2 3 14 6 38 5 25-1 4-3 2h-5l-4-5-4-10v-2h-12l-1 13-3 3-4-1-1-1 1-13 8-48 2-18zm-2 40-1 6v14l8 1-1-11-3-9z" fill="#0E3E63"/>
<path transform="translate(1639,726)" d="m0 0h11l2 2 7 42 2 11h2l3-23 4-23 3-9h7l-2 14-7 36-4 30-3 4-9-1-4-4-3-13-6-35-4-24z" fill="#0E3E63"/>
<path transform="translate(1504,726)" d="m0 0h5l1 5-2 3-12 2-1 2v18l1 1 11 2 1 5-13 3v30l1 5 3 1 12 1 3 4-3 2h-29l-1-4-1-51v-26l1-2z" fill="#0E3D62"/>
<path transform="translate(840,733)" d="m0 0 9 1 6 4 3 4-1 4-15-1-1 1v8l5 12 8 14 4 8 1 4v11l-4 8-5 4-6 2-7-1-6-4-3-4-1-5 2-1 9 3 5-1 1-1v-8l-5-12-9-16-3-7-1-5v-8l4-9 7-4z" fill="#0E3E62"/>
<path transform="translate(1303,729)" d="m0 0h28l2 1-1 5-14 1-1 1-1 22 12 1 2 2-1 4-11 2v36l16 2 1 5-5 1h-26l-1-2z" fill="#0B3C60"/>
<path transform="translate(1051,731)" d="m0 0 11 1 2 3v3l-14 3-3 3-2 7-1 10 1 29 2 10 3 5 11 2 2 2-1 5-1 1h-15l-7-4-6-8-4-10-2-10v-21l2-10 4-9 8-9 4-2z" fill="#0D3D62"/>
<path transform="translate(1344,728)" d="m0 0h40l2 2-1 4-3 1h-10v76h-14l-1-16v-59h-10l-4-2v-5z" fill="#0E3F62"/>
<path transform="translate(1072,730)" d="m0 0 40 1 2 1v4l-11 3h-3v74l-1 1h-11l-2-4-1-71h-8l-6-3v-5z" fill="#0B3C61"/>
<path transform="translate(686,734)" d="m0 0h9l5 3 1 4-1 1-12 1-3 3-3 7-2 17v10l1 14 3 9 2 4 4 2 10 3 1 4-2 2h-14l-7-3-8-9-5-14-1-7v-20l2-10 4-9 6-8z" fill="#0D3E62"/>
<path transform="translate(869,732)" d="m0 0h39l2 2-1 5-12 2-1 73-2 2h-10l-1-1-1-39v-35l-13-1-2-2 1-5z" fill="#0E3F63"/>
<path transform="translate(1720,725)" d="m0 0h39l1 4-5 3-9 2-1 73-4 2h-6l-3-3-1-18-1-54-13-3-1-5z" fill="#0C3F61"/>
<path transform="translate(796,485)" d="m0 0 8 2 5 4 2 4-1 5-4 6-8 7-10 4-5 1 1 6 1 1h8l8-4 12-11 4-4h2l-1 7-7 8-8 7-10 6-9 3-9-1-6-7-2-7 1-7 7-11 9-12 8-6zm-2 9-6 7-3 8 1 4 8-6 6-9-2-4z" fill="#017344"/>
<path transform="translate(1128,730)" d="m0 0h11l2 6v77l-1 1h-10l-2-2-1-8v-73z" fill="#0C3D61"/>
<path transform="translate(1773,725)" d="m0 0h11l2 4v78l-5 2-7-1-2-4v-78z" fill="#0C3C62"/>
<path transform="translate(294,775)" d="m0 0h23l1 1v14l-7 1-19-1-1-1v-12z" fill="#0C3F60"/>
<path transform="translate(294,749)" d="m0 0h22l1 1v14h-25l-1-1v-11z" fill="#0B3D60"/>
<path transform="translate(338,749)" d="m0 0h15l1 1v14h-26v-14z" fill="#0E3D63"/>
<path transform="translate(328,776)" d="m0 0h26v14l-23 1-3-3z" fill="#0B3962"/>
<path transform="translate(1901,616)" d="m0 0 4 1 1 8-2 5-4 2h-7l-1-5z" fill="#017344"/>
<path transform="translate(1800,562)" d="m0 0 6 1 2 2-1 5-5 4-4 1-4-3 1-6z" fill="#017344"/>
<path transform="translate(1501,701)" d="m0 0 3 3-1 6-4 5h-8l2-5 4-6z" fill="#1C4A6B"/>
</svg>
